<?xml version="1.0" standalone="no"?>
<!DOCTYPE svg PUBLIC "-//W3C//DTD SVG 20010904//EN"
 "http://www.w3.org/TR/2001/REC-SVG-20010904/DTD/svg10.dtd">
<svg version="1.0" xmlns="http://www.w3.org/2000/svg"
 width="1280.000000pt" height="1198.000000pt" viewBox="0 0 1280.000000 1198.000000"
 preserveAspectRatio="xMidYMid meet">
<metadata>
Created by potrace 1.15, written by Peter Selinger 2001-2017
</metadata>
<g transform="translate(0.000000,1198.000000) scale(0.100000,-0.100000)"
fill="#000000" stroke="none">
<path d="M8770 11964 c-177 -28 -374 -108 -530 -214 -30 -21 -116 -89 -191
-151 -184 -155 -427 -337 -525 -393 -136 -79 -197 -96 -349 -96 -71 0 -224 7
-340 15 -277 19 -314 19 -322 -1 -8 -22 4 -28 111 -54 141 -35 167 -52 232
-155 19 -29 19 -29 -1 -21 -65 28 -94 12 -75 -39 11 -30 0 -32 -25 -5 -47 52
-209 120 -330 138 -105 17 -382 35 -411 28 -38 -10 -27 -39 21 -52 22 -7 106
-28 186 -47 140 -34 358 -116 441 -167 l33 -20 -41 0 c-22 0 -114 7 -205 17
-289 29 -542 17 -644 -29 -32 -14 -32 -46 -1 -57 21 -9 200 -46 406 -85 l75
-14 -147 -1 c-156 -1 -328 -25 -543 -76 -189 -44 -215 -53 -215 -75 0 -26 19
-26 225 0 172 22 594 39 735 30 l85 -5 -41 -13 c-54 -16 -233 -60 -459 -112
-99 -23 -188 -46 -197 -51 -30 -16 -21 -47 18 -67 28 -14 34 -21 24 -28 -8 -5
-189 -97 -403 -204 -215 -107 -395 -203 -401 -212 -8 -13 -7 -21 2 -30 9 -9
41 -4 149 26 175 48 225 54 292 31 28 -9 51 -20 51 -24 0 -8 -146 -92 -425
-245 -151 -84 -174 -102 -152 -123 11 -11 33 -8 133 23 65 20 128 39 139 42
13 4 0 -16 -37 -57 -32 -34 -58 -66 -58 -70 0 -22 30 -33 61 -22 18 6 34 11
37 11 11 0 -33 -42 -178 -170 -286 -253 -335 -309 -275 -318 25 -3 90 31 303
159 90 55 182 109 205 120 l42 21 -35 -37 c-19 -20 -133 -127 -252 -237 -217
-201 -254 -240 -243 -258 15 -24 62 -2 238 111 104 66 191 119 193 116 5 -5
-131 -164 -391 -457 -664 -749 -655 -738 -716 -947 -62 -212 -101 -263 -334
-438 -221 -166 -310 -259 -516 -535 -248 -333 -744 -1082 -833 -1259 -20 -39
-25 -56 -17 -64 18 -18 36 -2 161 142 63 72 126 139 139 148 22 15 25 15 41
-7 24 -31 40 -88 40 -136 -1 -84 -113 -241 -350 -488 -106 -110 -258 -285
-373 -428 -263 -329 -586 -682 -1095 -1200 -198 -201 -253 -251 -365 -329
-170 -120 -255 -206 -334 -340 -102 -173 -223 -458 -210 -494 12 -29 42 -14
88 43 25 31 131 174 235 317 104 143 205 281 224 306 l35 46 10 -51 c11 -57
33 -70 67 -39 32 28 17 -1 -30 -59 -24 -29 -59 -80 -79 -113 -20 -33 -43 -72
-52 -87 -13 -22 -13 -30 -3 -40 9 -9 17 -10 30 -2 9 6 107 109 216 230 110
120 276 296 370 389 148 147 182 176 251 212 95 49 234 94 375 123 153 31 156
29 84 -55 -71 -82 -392 -392 -544 -525 -140 -122 -245 -191 -441 -290 -192
-97 -257 -139 -321 -208 -111 -118 -238 -374 -268 -540 -14 -78 -2 -112 39
-112 36 0 82 36 263 204 75 70 165 150 200 178 64 52 461 318 474 318 4 0 -14
-19 -40 -41 -85 -75 -911 -1007 -1109 -1252 -48 -59 -60 -97 -31 -97 10 0 179
161 378 358 199 197 407 394 463 439 146 117 416 306 552 388 8 4 -12 -23 -44
-60 -80 -95 -140 -188 -568 -890 -144 -235 -220 -384 -243 -476 -23 -93 -27
-336 -5 -386 39 -93 170 -96 384 -7 62 25 138 55 169 67 82 31 87 23 60 -97
-26 -111 -27 -149 -7 -166 19 -16 53 -7 114 30 58 36 94 38 135 6 44 -33 71
-39 101 -23 67 35 471 433 627 619 31 37 104 133 162 215 155 217 134 197 200
189 40 -4 64 -2 84 8 51 26 153 148 427 506 224 294 349 448 615 755 635 733
662 771 880 1195 63 124 135 254 159 290 43 63 278 307 287 297 8 -8 -26 -85
-246 -562 -430 -930 -457 -998 -412 -1013 21 -7 100 85 253 297 157 217 164
226 157 195 -14 -56 40 -69 137 -33 77 29 120 69 162 152 19 39 81 139 138
223 147 215 155 233 189 435 7 41 28 63 94 99 51 27 58 37 242 331 52 84 111
169 131 191 58 61 79 56 250 -60 231 -157 300 -212 297 -236 -2 -16 -39 -39
-154 -97 -83 -41 -163 -83 -178 -92 -43 -29 -83 -93 -112 -180 -14 -45 -41
-116 -59 -157 -42 -98 -49 -138 -32 -188 19 -55 94 -150 213 -270 100 -100
135 -120 148 -87 3 9 -31 86 -78 178 -92 178 -105 222 -86 311 14 66 20 71
132 92 163 30 198 52 225 143 8 30 25 64 37 76 56 56 366 218 493 259 133 41
567 114 711 118 84 3 93 -4 132 -88 34 -75 79 -113 269 -228 209 -125 344
-190 513 -246 87 -28 168 -60 180 -69 l21 -18 -44 -17 c-24 -9 -141 -38 -259
-65 -245 -56 -387 -100 -445 -139 -126 -85 -213 -358 -166 -520 30 -105 200
-220 391 -264 43 -10 53 -9 66 4 22 22 12 38 -100 158 -110 117 -124 147 -107
226 14 59 60 135 99 162 62 42 295 115 537 168 109 24 131 25 240 18 217 -13
222 -12 267 68 12 21 29 40 39 43 24 8 161 -28 582 -155 202 -60 376 -110 387
-110 10 0 32 12 50 26 l31 26 57 -36 c135 -87 180 -96 168 -33 -17 90 -123
240 -195 277 -45 22 -148 49 -331 85 -271 53 -285 60 -356 178 -41 67 -62 80
-108 72 -40 -8 -57 0 -127 61 -68 58 -110 82 -514 299 -181 97 -334 181 -340
186 -5 6 6 25 31 52 98 102 127 154 191 341 75 221 114 288 295 512 102 127
145 195 234 374 46 91 109 199 141 242 71 93 221 261 276 307 l40 35 -7 -55
c-5 -40 -3 -59 8 -74 14 -19 15 -19 35 -1 12 11 62 86 112 168 50 82 93 148
94 146 2 -2 -19 -81 -47 -176 -38 -131 -48 -176 -39 -185 23 -23 44 9 122 183
43 96 92 202 109 235 l30 60 -3 -105 c-2 -93 0 -105 16 -108 23 -5 32 18 102
258 31 107 60 199 64 203 5 4 11 -15 14 -44 8 -62 20 -80 42 -58 17 16 27 64
51 240 20 148 22 386 5 619 -7 91 -13 217 -14 280 -2 130 -12 118 86 104 42
-6 51 -4 74 17 30 28 165 231 248 374 40 69 80 122 129 170 123 120 138 180
112 440 -9 88 -16 247 -17 353 0 178 2 197 21 237 25 52 67 90 130 119 39 18
64 21 190 20 174 0 145 9 733 -225 219 -88 404 -159 413 -159 8 0 17 7 21 17
7 19 -3 28 -250 237 -294 249 -350 283 -784 482 -241 110 -314 148 -336 172
-21 23 -50 109 -39 116 19 11 630 -230 861 -340 73 -35 203 -106 290 -157 86
-52 192 -113 236 -137 44 -24 93 -57 108 -72 27 -26 29 -33 25 -91 -3 -57 -1
-62 18 -65 16 -2 26 6 39 35 40 83 24 222 -34 306 -35 50 -390 402 -551 546
-123 110 -244 196 -325 231 -28 12 -125 50 -216 85 -224 85 -302 120 -379 170
-36 23 -175 138 -310 256 -311 271 -386 331 -540 433 -351 233 -682 405 -920
481 -223 70 -538 100 -730 69z"/>
</g>
</svg>
