<?xml version="1.0" standalone="no"?>
<!DOCTYPE svg PUBLIC "-//W3C//DTD SVG 20010904//EN"
 "http://www.w3.org/TR/2001/REC-SVG-20010904/DTD/svg10.dtd">
<svg version="1.0" xmlns="http://www.w3.org/2000/svg"
 width="1280.000000pt" height="782.000000pt" viewBox="0 0 1280.000000 782.000000"
 preserveAspectRatio="xMidYMid meet">
<metadata>
Created by potrace 1.15, written by Peter Selinger 2001-2017
</metadata>
<g transform="translate(0.000000,782.000000) scale(0.100000,-0.100000)"
fill="#000000" stroke="none">
<path d="M2555 7810 c-196 -22 -436 -73 -635 -136 -137 -43 -148 -49 -190 -94
-25 -26 -55 -52 -67 -58 -11 -7 -113 -27 -225 -46 -273 -46 -740 -169 -1000
-262 -170 -61 -366 -182 -414 -254 -33 -50 -25 -63 25 -45 46 16 204 48 351
71 161 25 486 29 740 10 317 -24 510 -53 510 -75 0 -9 -25 -20 -105 -46 -75
-24 -457 -171 -565 -217 -280 -119 -677 -346 -783 -446 -42 -41 -46 -52 -16
-52 24 0 338 73 674 156 207 51 222 54 275 44 134 -27 187 -53 198 -94 5 -19
15 -31 25 -31 9 0 22 -8 29 -18 7 -10 31 -20 53 -24 22 -3 50 -15 63 -27 14
-12 33 -20 48 -18 34 5 84 -47 84 -87 0 -44 15 -46 48 -5 l30 36 -5 -45 c-7
-56 12 -113 43 -134 13 -8 24 -24 24 -34 0 -32 50 -121 70 -126 22 -6 23 -9
44 -115 19 -93 20 -123 5 -253 -12 -100 -6 -181 12 -170 5 4 9 15 9 25 0 24
20 37 30 20 4 -7 11 -44 14 -84 17 -179 68 -312 183 -484 47 -70 105 -151 128
-182 23 -30 86 -140 139 -245 53 -104 114 -215 136 -245 22 -30 57 -82 79
-115 22 -33 57 -85 78 -115 21 -30 57 -87 80 -127 77 -134 148 -227 251 -330
57 -57 107 -103 113 -103 5 0 9 7 9 15 0 21 148 -93 269 -207 115 -109 305
-225 656 -403 218 -111 264 -130 501 -208 162 -54 312 -96 395 -113 137 -26
420 -105 543 -151 53 -20 157 -85 205 -129 26 -24 -353 -498 -657 -822 -48
-51 -90 -102 -94 -112 -4 -11 -12 -20 -17 -20 -5 0 -28 -19 -50 -43 -67 -70
-133 -104 -241 -122 -60 -10 -140 -34 -217 -66 -68 -27 -128 -49 -134 -49 -17
0 -99 -60 -156 -113 -68 -64 -94 -129 -100 -253 -7 -115 11 -174 72 -242 106
-118 300 -176 630 -188 601 -23 1595 145 3365 570 1486 356 1716 410 2167 501
l262 53 58 -20 c84 -28 379 -103 518 -133 295 -63 508 -83 535 -51 10 12 1 20
-50 46 -85 43 -146 103 -220 215 -35 52 -69 95 -76 95 -7 0 -35 19 -61 42 -27
24 -147 125 -268 224 -121 100 -233 196 -250 214 l-30 32 70 -7 c184 -16 811
-55 985 -61 174 -6 197 -5 209 10 7 9 23 16 35 16 25 0 202 -59 471 -158 207
-76 255 -90 255 -73 0 38 -57 94 -183 179 -74 50 -167 121 -206 157 -39 36
-78 65 -85 65 -8 0 -18 5 -21 10 -8 12 11 11 278 -26 192 -26 272 -30 282 -14
9 14 -43 139 -72 175 -52 63 -183 140 -331 196 -18 6 -62 38 -98 70 -35 33
-73 59 -84 59 -11 0 -24 9 -30 19 -5 11 -34 31 -64 45 -54 25 -112 43 -532
160 -127 36 -255 74 -285 86 -30 12 -103 37 -164 55 -191 58 -363 126 -503
198 -100 51 -153 72 -194 77 -38 5 -91 25 -166 63 -60 31 -169 77 -243 102
-74 25 -137 49 -141 53 -4 4 8 34 28 65 51 82 45 105 -59 214 -94 98 -93 107
18 98 51 -4 76 -2 89 8 17 12 11 19 -70 91 -221 194 -525 377 -889 537 -113
49 -197 102 -282 178 -46 42 -94 69 -230 131 -95 43 -189 84 -208 90 -20 7
-133 63 -252 125 -234 123 -290 144 -540 199 -182 40 -342 98 -431 156 -34 21
-102 76 -153 122 -575 522 -989 822 -1307 949 -42 17 -133 51 -202 76 -69 24
-170 64 -225 88 -151 65 -421 158 -600 205 -88 24 -165 47 -171 51 -16 13
-100 159 -109 189 -5 14 -49 68 -100 120 -50 52 -120 133 -155 179 -35 47
-100 124 -144 171 -45 48 -112 122 -149 164 -50 56 -103 99 -200 164 -115 76
-146 92 -241 121 -191 58 -273 71 -481 76 -104 2 -226 0 -270 -5z m4997 -5794
c541 -96 974 -127 1349 -96 l117 10 93 -44 c172 -80 312 -137 469 -191 360
-122 368 -127 633 -323 70 -52 126 -99 124 -106 -2 -7 -68 -13 -198 -18 -107
-4 -365 -19 -574 -33 -503 -33 -842 -53 -1110 -65 -121 -6 -326 -16 -455 -24
-129 -8 -305 -17 -390 -21 -85 -3 -245 -12 -355 -20 -110 -8 -283 -17 -385
-20 -102 -3 -220 -10 -264 -15 -43 -6 -82 -7 -87 -4 -5 3 3 28 18 57 72 143
287 502 333 556 l20 24 88 -37 c48 -20 94 -36 102 -36 24 1 -29 40 -54 40 -25
0 -64 25 -54 35 3 4 65 -5 137 -20 73 -14 139 -25 149 -23 18 4 9 11 -116 88
-29 18 -50 36 -45 41 4 4 49 -1 98 -12 113 -23 173 -25 182 -3 8 21 -14 67
-29 58 -8 -5 -9 -2 -5 10 5 13 -5 30 -39 61 -40 38 -44 46 -34 64 9 18 7 22
-15 31 -15 6 -55 10 -90 10 -50 0 -66 -4 -74 -17 -9 -16 -10 -15 -11 8 0 31
24 67 34 51 9 -15 56 -16 56 -2 0 6 -10 10 -22 11 -22 0 -22 1 -3 10 34 15
204 1 407 -35z m-1492 -146 c22 -11 50 -20 62 -20 27 0 76 -28 139 -81 48 -40
75 -50 65 -24 -7 20 -4 19 54 -10 60 -30 80 -32 80 -5 0 22 16 25 55 10 23 -9
26 -14 21 -38 -10 -39 -248 -516 -295 -589 l-40 -62 -88 0 c-51 0 -151 -10
-237 -25 -233 -40 -576 -68 -576 -46 0 19 32 69 148 230 234 324 528 680 562
680 6 0 28 -9 50 -20z"/>
</g>
</svg>
